<svg version="1.2" xmlns="http://www.w3.org/2000/svg" viewBox="0 0 682 464" width="682" height="464">
	<title>install(2)</title>
	<style>
		.s0 { fill: #ffffff } 
		.s1 { fill: #ebebeb } 
		.s2 { fill: #cdcdcd } 
		.s3 { fill: #3e3f3f } 
		.s4 { fill: #252525 } 
		.s5 { fill: #f5f5f5 } 
		.s6 { fill: none;stroke: #161616;stroke-miterlimit:100;stroke-width: 2 } 
		.s7 { fill: #464342 } 
		.s8 { fill: #95bf46 } 
		.s9 { fill: #5e8e3e } 
		.s10 { fill: #000000 } 
		.s11 { fill: #fbbd71 } 
		.s12 { fill: #146ef5 } 
		.s13 { fill: #394c60 } 
		.s14 { fill: #3c9bd6 } 
		.s15 { fill: #e74f38 } 
		.s16 { fill: #288cc0 } 
		.s17 { fill: #3192e7 } 
		.s18 { fill: #8ab4f8 } 
		.s19 { fill: #4285f4 } 
		.s20 { fill: #246fdb } 
	</style>
	<g id="Folder 4">
		<g id="Folder 2">
			<g id="Clip-Path">
				<g id="Layer">
					<g id="Layer">
						<g id="Layer">
							<path id="Layer" class="s0" d="m682 463c0 0.1-682 1-682 1 0-0.1 0-361.1 0-361.1l682 0.1c0 0 0 357.4 0 360z"/>
						</g>
					</g>
					<g id="Layer">
						<g id="Layer">
							<path id="Layer" class="s1" d="m0 8c0-4.4 3.6-8 8-8h666c4.4 0 8 3.6 8 8v98h-682z"/>
						</g>
					</g>
					<g id="Layer">
						<g id="Layer">
							<path id="Layer" class="s0" d="m44 33h530c11 0 20 9 20 20 0 11-9 20-20 20h-530c-11 0-20-9-20-20 0-11 9-20 20-20z"/>
						</g>
					</g>
					<g id="Layer">
						<g id="Layer">
							<path id="Layer" class="s1" d="m76 47h222c3.3 0 6 2.7 6 6 0 3.3-2.7 6-6 6h-222c-3.3 0-6-2.7-6-6 0-3.3 2.7-6 6-6z"/>
						</g>
					</g>
					<g id="Layer">
						<g id="Layer">
							<path id="Layer" class="s1" d="m49.1 61.7c-4.8 0-8.7-3.9-8.7-8.7 0-4.8 3.9-8.8 8.7-8.8 4.9 0 8.8 4 8.8 8.8 0 4.8-3.9 8.7-8.8 8.7z"/>
						</g>
						<g id="Layer">
							<path id="Layer" fill-rule="evenodd" class="s2" d="m52.2 58.4q0.3-0.2 0.6-0.5c0.3-0.3 0.6-1 0.6-1.5 0-0.3-0.2-0.7-0.4-0.9l-0.6-0.6c-0.3-0.3-0.7-0.5-1.1-0.5h-2.9c-0.2-0.1-0.4-0.4-0.6-0.7-0.3-0.3-0.6-0.7-0.8-0.7q-0.7 0-1.4-0.3l-0.5-0.2q-0.2-0.2-0.2-0.5c0-0.2 0.1-0.5 0.3-0.5l1.4-0.5h0.2c0.2 0 0.4 0 0.5 0.1l0.4 0.4q0.1 0.1 0.2 0.1h0.3c0.3 0 0.4-0.3 0.3-0.5l-0.7-1.4q0 0 0-0.1 0 0-0.1-0.1 0-0.1 0.2-0.2l0.4-0.4q0.1-0.2 0.2-0.2h0.4c0.1 0 0.3 0 0.3 0l0.4-0.4c0.1-0.1 0.1-0.4 0-0.5l-0.3-0.2c-0.1-0.1-0.1-0.4 0-0.5l0.5-0.5 0.2-0.2c0.3-0.2 0.3-0.7 0-1l-1.1-1.1q0.1-0.1 0.2-0.1c3.5 0 6.4 2 7.9 4.9l-0.6 0.3c-0.1 0.1-0.3 0.1-0.4 0.3l-0.8 1.3c-0.1 0.2-0.2 0.4-0.2 0.6 0 0.2 0.1 0.4 0.2 0.6l0.8 1.2q0.2 0.3 0.6 0.4l1.2 0.3c-0.5 3.7-3.2 6.6-6.8 7.4l0.8-1.9c0.1-0.3 0.1-0.5 0.2-0.7q0-0.3 0.2-0.5zm-11.8-5.4c0-1.2 0.2-2.4 0.7-3.5 0.4 0.7 1 1.6 1.5 2.2 0.1 0.2 0.5 0.7 0.8 0.9 0.4 0.4 0.9 0.7 1.4 1 0.6 0.3 1.5 0.8 2.2 1.1 0.4 0.3 0.7 0.8 0.7 1.3v1.4q0 0.6 0.4 1c0.7 0.7 1.1 1.7 1 2.3v1c-4.8 0-8.7-3.9-8.7-8.7zm7.3-8.6v0.4c0 0.5-0.6 0.8-1.1 0.6l-0.9-0.5q1-0.4 2-0.5z"/>
						</g>
					</g>
					<g id="Layer">
						<g id="Layer">
							<g id="Folder 5">
								<path id="Layer" class="s3" d="m136.4 399.8c0-2.2 1.8-4 4-4h151.2c2.2 0 4 1.8 4 4v35.4c0 2.2-1.8 4-4 4h-151.2c-2.2 0-4-1.8-4-4z"/>
								<path id="DONE" class="s0" aria-label="DONE"  d="m191.7 423.3c3.5 0 5.6-2.2 5.6-5.9 0-3.6-2.1-5.7-5.5-5.7h-4v11.6zm-1.9-1.9v-7.9h1.8c2.4 0 3.6 1.3 3.6 3.9 0 2.7-1.2 4-3.6 4zm23.6-3.9c0-3.8-2.3-6-5.3-6-3.1 0-5.4 2.2-5.4 6 0 3.7 2.3 5.9 5.4 5.9 3 0 5.3-2.2 5.3-5.9zm-2.1 0c0 2.6-1.4 4-3.2 4-1.9 0-3.3-1.4-3.3-4 0-2.7 1.4-4.1 3.3-4.1 1.8 0 3.2 1.4 3.2 4.1zm17.4-5.8h-2.1v7.9h-0.1l-5.5-7.9h-1.8v11.6h2.1v-7.9h0.1l5.4 7.9h1.9zm6.1 11.6h7.6v-1.8h-5.5v-3.2h5v-1.7h-5v-3.2h5.4v-1.7h-7.5z"/>
							</g>
						</g>
					</g>
					<g id="Layer">
					</g>
				</g>
			</g>
			<g id="Layer">
			</g>
			<g id="Folder 3">
				<path id="EMBED CHATBOT" class="s4" aria-label="EMBED CHATBOT"  d="m38.4 166h9.6v-2.2h-6.9v-4h6.3v-2.2h-6.3v-3.9h6.8v-2.2h-9.5zm14.2-14.6v14.6h2.5v-10.1h0.1l4.1 10h1.9l4-9.9h0.1v10h2.5v-14.6h-3.2l-4.3 10.5h-0.2l-4.3-10.5zm20.1 14.6h5.9c3.4 0 5-1.7 5-4 0-2.2-1.6-3.5-3.1-3.6v-0.1c1.4-0.4 2.5-1.4 2.5-3.1 0-2.2-1.5-3.8-4.7-3.8h-5.6zm2.7-2.2v-4.3h2.9c1.6 0 2.6 1 2.6 2.3 0 1.2-0.8 2-2.7 2zm0-6.2v-4h2.7c1.5 0 2.3 0.9 2.3 2 0 1.3-1 2-2.4 2zm12.5 8.4h9.5v-2.2h-6.8v-4h6.3v-2.2h-6.3v-3.9h6.8v-2.2h-9.5zm19.1 0c4.4 0 7.1-2.8 7.1-7.3 0-4.6-2.7-7.3-7-7.3h-5v14.6zm-2.3-2.3v-10h2.2c3 0 4.5 1.6 4.5 5 0 3.3-1.5 5-4.6 5zm33.3-7.4c-0.4-3.2-2.9-5.1-6.1-5.1-3.8 0-6.7 2.8-6.7 7.5 0 4.7 2.8 7.5 6.7 7.5 3.4 0 5.7-2.3 6.1-5.1h-2.6c-0.4 1.7-1.8 2.7-3.5 2.7-2.4 0-4.1-1.8-4.1-5.1 0-3.3 1.7-5.1 4.1-5.1 1.8 0 3.2 1 3.5 2.7zm4.4 9.7h2.6v-6.2h6.8v6.2h2.6v-14.6h-2.6v6.2h-6.8v-6.2h-2.6zm18.7 0l1.2-3.6h5.5l1.2 3.6h2.8l-5.1-14.5h-3.3l-5.1 14.5zm1.9-5.7l2-5.8h0.1l2 5.8zm10.3-6.6h4.5v12.3h2.6v-12.3h4.5v-2.2h-11.6zm15.8 12.3h5.9c3.3 0 5-1.7 5-4 0-2.2-1.6-3.4-3.2-3.5v-0.2c1.5-0.3 2.6-1.3 2.6-3.1 0-2.1-1.6-3.7-4.7-3.7h-5.6zm2.6-2.2v-4.3h2.9c1.7 0 2.7 1 2.7 2.3 0 1.2-0.8 2-2.7 2zm0-6.2v-4h2.6c1.6 0 2.4 0.8 2.4 1.9 0 1.3-1 2.1-2.4 2.1zm25.5 1.1c0-4.7-2.9-7.5-6.7-7.5-3.8 0-6.7 2.8-6.7 7.5 0 4.7 2.9 7.5 6.7 7.5 3.8 0 6.7-2.8 6.7-7.5zm-2.7 0c0 3.3-1.6 5.1-4 5.1-2.4 0-4-1.8-4-5.1 0-3.3 1.6-5.1 4-5.1 2.4 0 4 1.8 4 5.1zm5.9-5.1h4.5v12.4h2.6v-12.4h4.5v-2.2h-11.6z"/>
				<path id="OTHER OPTIONS" class="s4" aria-label="OTHER OPTIONS"  d="m378.4 158.7c0-4.7-2.8-7.4-6.7-7.4-3.8 0-6.6 2.7-6.6 7.4 0 4.7 2.8 7.5 6.6 7.5 3.9 0 6.7-2.8 6.7-7.5zm-2.6 0c0 3.3-1.7 5.1-4.1 5.1-2.3 0-4-1.8-4-5.1 0-3.3 1.7-5.1 4-5.1 2.4 0 4.1 1.8 4.1 5.1zm5.9-5h4.5v12.3h2.6v-12.3h4.5v-2.2h-11.6zm15.8 12.3h2.6v-6.2h6.8v6.2h2.6v-14.6h-2.6v6.2h-6.8v-6.2h-2.6zm16.9 0h9.5v-2.2h-6.9v-3.9h6.3v-2.2h-6.3v-4h6.8v-2.2h-9.4zm14.1 0h2.7v-5.3h2.6l2.9 5.3h2.9l-3.1-5.8c1.7-0.7 2.6-2.1 2.6-4.1 0-2.8-1.8-4.6-5.1-4.6h-5.5zm2.7-7.6v-4.8h2.4c1.9 0 2.8 0.9 2.8 2.5 0 1.5-0.9 2.3-2.8 2.3zm32.3 0.3c0-4.7-2.8-7.5-6.7-7.5-3.8 0-6.6 2.8-6.6 7.5 0 4.7 2.8 7.5 6.6 7.5 3.9 0 6.7-2.8 6.7-7.5zm-2.6 0c0 3.3-1.7 5.1-4.1 5.1-2.3 0-4-1.8-4-5.1 0-3.3 1.7-5.1 4-5.1 2.4 0 4.1 1.8 4.1 5.1zm7.1 7.3h2.7v-5h2.7c3.4 0 5.2-2 5.2-4.8 0-2.8-1.8-4.8-5.1-4.8h-5.5zm2.7-7.1v-5.2h2.4c2 0 2.8 1 2.8 2.6 0 1.5-0.8 2.6-2.8 2.6zm11.6-5.2h4.5v12.3h2.6v-12.3h4.5v-2.2h-11.6zm18.5-2.2h-2.7v14.5h2.7zm17.8 7.3c0-4.7-2.9-7.5-6.7-7.5-3.8 0-6.6 2.8-6.6 7.5 0 4.7 2.8 7.4 6.6 7.4 3.8 0 6.7-2.7 6.7-7.4zm-2.6 0c0 3.3-1.7 5.1-4.1 5.1-2.3 0-4-1.8-4-5.1 0-3.3 1.7-5.1 4-5.1 2.4 0 4.1 1.8 4.1 5.1zm19.1-7.3h-2.7v9.9h-0.1l-6.8-9.9h-2.4v14.5h2.7v-9.9h0.1l6.8 9.9h2.4zm12.7 4h2.6c-0.1-2.4-2.2-4.2-5.3-4.2-3 0-5.3 1.8-5.3 4.3 0 2.1 1.5 3.3 3.9 3.9l1.6 0.5c1.6 0.4 2.6 0.9 2.6 2 0 1.2-1.1 2.1-2.9 2.1-1.6 0-2.9-0.8-3-2.3h-2.6c0.1 2.9 2.3 4.5 5.7 4.5 3.4 0 5.5-1.7 5.5-4.3 0-2.5-2.1-3.7-4.3-4.2l-1.4-0.3c-1.2-0.3-2.5-0.8-2.4-2 0-1.1 0.9-1.9 2.6-1.9 1.6 0 2.6 0.7 2.7 1.9z"/>
			</g>
			<g id="Folder 6">
				<path id="Layer" class="s5" d="m35 271.6c0-4.4 3.6-8 8-8h96.8c4.4 0 8 3.6 8 8 0 4.5-3.6 8-8 8h-96.8c-4.4 0-8-3.5-8-8z"/>
				<path id="Layer copy" class="s5" d="m225.6 332.6c0-4.4 3.6-8 8-8h54.8c4.5 0 8 3.6 8 8 0 4.5-3.5 8-8 8h-54.8c-4.4 0-8-3.5-8-8z"/>
				<path id="Layer" class="s5" d="m159.5 271.6c0-4.4 3.6-8 8-8h120.2c4.4 0 8 3.6 8 8 0 4.5-3.6 8-8 8h-120.2c-4.4 0-8-3.5-8-8z"/>
				<path id="Layer copy 2" class="s5" d="m37.3 333.6c0-4.4 3.6-8 8-8h157.6c4.4 0 8 3.6 8 8 0 4.5-3.6 8-8 8h-157.6c-4.4 0-8-3.5-8-8z"/>
				<path id="Layer" class="s5" d="m35 241c0-4.4 3.6-8 8-8h244.7c4.4 0 8 3.6 8 8 0 4.4-3.6 8-8 8h-244.7c-4.4 0-8-3.6-8-8z"/>
				<path id="Layer copy 4" class="s5" d="m36.6 302c0-4.4 3.5-8 8-8h244.6c4.4 0 8 3.6 8 8 0 4.4-3.6 8-8 8h-244.6c-4.5 0-8-3.6-8-8z"/>
				<path id="Layer copy 5" class="s5" d="m37.3 364c0-4.4 3.6-8 8-8h244.7c4.4 0 8 3.6 8 8 0 4.4-3.6 8-8 8h-244.7c-4.4 0-8-3.6-8-8z"/>
			</g>
		</g>
	</g>
	<g id="Layer">
		<path id="Layer" class="s0" d="m291.8 442.2l-3.8-24.5c-0.1-0.8 0.9-1.3 1.6-0.8l21.8 15.2c0.8 0.5 0.5 1.6-0.4 1.7l-10.4 1c-0.3 0-0.6 0.1-0.7 0.3l-6.2 7.6c-0.5 0.6-1.7 0.3-1.9-0.5z"/>
		<path id="Layer" class="s6" d="m291.8 442.2l-3.8-24.5c-0.1-0.8 0.9-1.3 1.6-0.8l21.8 15.2c0.8 0.5 0.5 1.6-0.4 1.7l-10.4 1c-0.3 0-0.6 0.1-0.7 0.3l-6.2 7.6c-0.5 0.6-1.7 0.3-1.9-0.5z"/>
	</g>
	<path id="Copy this code and paste it into" class="s4" aria-label="Copy this code and paste it into your site"  d="m46.4 191.2c-0.4-2.1-2-3.3-4.1-3.3-2.6 0-4.5 2-4.5 5.2 0 3.2 1.9 5.2 4.5 5.2 2.1 0 3.7-1.2 4.1-3.3h-1.2c-0.3 1.4-1.5 2.2-2.9 2.2-1.8 0-3.3-1.5-3.3-4.1 0-2.7 1.5-4.1 3.3-4.1 1.4 0 2.6 0.8 2.9 2.2zm6.3 7.1c2.1 0 3.5-1.5 3.5-3.9 0-2.4-1.4-4-3.5-4-2 0-3.4 1.6-3.4 4 0 2.4 1.4 3.9 3.4 3.9zm0-1c-1.5 0-2.3-1.4-2.3-2.9 0-1.5 0.8-2.9 2.3-2.9 1.6 0 2.3 1.4 2.3 2.9 0 1.5-0.7 2.9-2.3 2.9zm6.7 3.7h1.1v-4h0.1c0.3 0.4 0.8 1.3 2.3 1.3 1.9 0 3.2-1.5 3.2-3.9 0-2.4-1.3-4-3.2-4-1.5 0-2 1-2.3 1.4h-0.1v-1.3h-1.1zm1.1-6.6c0-1.7 0.8-2.9 2.2-2.9 1.5 0 2.2 1.3 2.2 2.9 0 1.6-0.7 2.9-2.2 2.9-1.4 0-2.2-1.2-2.2-2.9zm9.3 6.6c1 0 1.8-0.5 2.2-1.7l3.3-8.8h-1.3l-2.1 6.1h-0.1l-2.1-6.1h-1.3l2.9 7.7-0.3 0.6c-0.4 1.2-0.9 1.3-1.8 1.1l-0.3 1c0.1 0.1 0.5 0.1 0.9 0.1zm17.1-10.5h-1.6v-1.8h-1.2v1.8h-1.2v1h1.2v4.8c0 1.3 1.1 2 2 2 0.5 0 0.8-0.1 0.9-0.2l-0.2-1c-0.1 0-0.3 0-0.5 0-0.6 0-1-0.1-1-1.1v-4.5h1.6zm4.5 3.1c0-1.3 0.8-2.1 2-2.1 1.1 0 1.8 0.7 1.8 1.9v4.8h1.1v-4.9c0-1.9-1-2.9-2.6-2.9-1.2 0-1.9 0.5-2.2 1.3h-0.1v-3.7h-1.2v10.2h1.2zm8.5 4.6h1.2v-7.7h-1.2zm0.6-8.9c0.4 0 0.8-0.3 0.8-0.8 0-0.4-0.4-0.8-0.8-0.8-0.5 0-0.9 0.4-0.9 0.8 0 0.5 0.4 0.8 0.9 0.8zm9.5 3c-0.4-1.1-1.2-1.8-2.7-1.8-1.6 0-2.8 0.9-2.8 2.2 0 1.1 0.6 1.8 2 2.1l1.3 0.3c0.8 0.2 1.1 0.5 1.1 1.1 0 0.6-0.7 1.2-1.7 1.2-1 0-1.6-0.5-1.8-1.3l-1.1 0.3c0.2 1.3 1.3 2 2.9 2 1.7 0 3-1 3-2.3 0-1.1-0.7-1.7-2.1-2.1l-1.1-0.2c-0.9-0.3-1.3-0.6-1.3-1.2 0-0.6 0.7-1.1 1.6-1.1 1 0 1.5 0.6 1.7 1.1zm11.7 6.1c1.7 0 2.8-1 3-2.4h-1.2c-0.2 0.8-0.9 1.3-1.8 1.3-1.4 0-2.3-1.1-2.3-2.9 0-1.7 0.9-2.8 2.3-2.8 1 0 1.7 0.6 1.8 1.3h1.2c-0.2-1.4-1.4-2.4-3-2.4-2.1 0-3.5 1.6-3.5 4 0 2.2 1.4 3.9 3.5 3.9zm9.2 0c2.1 0 3.5-1.6 3.5-3.9 0-2.4-1.4-4-3.5-4-2 0-3.4 1.6-3.4 4 0 2.3 1.4 3.9 3.4 3.9zm0-1.1c-1.5 0-2.3-1.3-2.3-2.8 0-1.6 0.8-2.9 2.3-2.9 1.6 0 2.3 1.3 2.3 2.9 0 1.5-0.7 2.8-2.3 2.8zm9.6 1.1c1.4 0 1.9-0.9 2.2-1.3h0.1v1.1h1.2v-10.1h-1.2v3.7h-0.1c-0.3-0.4-0.7-1.3-2.2-1.3-2 0-3.3 1.5-3.3 3.9 0 2.5 1.3 4 3.3 4zm0.1-1.1c-1.5 0-2.2-1.3-2.2-2.9 0-1.6 0.7-2.8 2.2-2.8 1.4 0 2.2 1.1 2.2 2.8 0 1.7-0.8 2.9-2.2 2.9zm10.3 1.1c1.5 0 2.7-0.8 3-1.9l-1.1-0.4c-0.3 0.8-1 1.2-1.9 1.2-1.4 0-2.4-0.9-2.4-2.5h5.5v-0.5c0-2.8-1.7-3.8-3.3-3.8-2 0-3.4 1.6-3.4 4 0 2.3 1.4 3.9 3.6 3.9zm-2.4-4.6c0.1-1.2 0.9-2.2 2.2-2.2 1.3 0 2.1 0.9 2.1 2.2zm16.4 4.6c1.3 0 2-0.7 2.2-1.2h0.1v1h1.2v-5c0-2.4-1.9-2.7-2.9-2.7-1.1 0-2.4 0.4-3 1.8l1.1 0.4c0.2-0.6 0.8-1.2 2-1.2 1 0 1.6 0.6 1.6 1.6 0 0.6-0.6 0.5-2 0.7-1.4 0.2-3 0.5-3 2.3 0 1.5 1.2 2.3 2.7 2.3zm0.1-1c-0.9 0-1.6-0.5-1.6-1.3 0-0.9 0.8-1.1 1.8-1.3 0.4 0 1.8-0.2 2-0.4v1.1c0 0.9-0.8 1.9-2.2 1.9zm8.1-3.8c0-1.3 0.8-2 1.9-2 1.1 0 1.8 0.7 1.8 1.9v4.7h1.1v-4.8c0-2-1-2.9-2.5-2.9-1.2 0-1.9 0.5-2.3 1.3h-0.1v-1.2h-1.1v7.6h1.2zm11.3 4.8c1.4 0 1.9-0.9 2.2-1.3h0.1v1.1h1.2v-10.2h-1.2v3.8h-0.1c-0.3-0.4-0.7-1.3-2.2-1.3-1.9 0-3.3 1.5-3.3 3.9 0 2.5 1.4 4 3.3 4zm0.1-1.1c-1.4 0-2.2-1.3-2.2-2.9 0-1.6 0.7-2.9 2.2-2.9 1.5 0 2.2 1.2 2.2 2.9 0 1.7-0.8 2.9-2.2 2.9zm12.4 3.8h1.2v-4h0.1c0.3 0.4 0.7 1.3 2.2 1.3 1.9 0 3.3-1.5 3.3-4 0-2.4-1.4-3.9-3.3-3.9-1.5 0-1.9 0.9-2.2 1.3h-0.1v-1.2h-1.2zm1.2-6.7c0-1.7 0.7-2.9 2.2-2.9 1.5 0 2.2 1.3 2.2 2.9 0 1.6-0.8 2.9-2.2 2.9-1.4 0-2.2-1.2-2.2-2.9zm11 4c1.3 0 2-0.7 2.3-1.2v1h1.2v-5c0-2.4-1.8-2.7-2.8-2.7-1.2 0-2.5 0.4-3.1 1.8l1.1 0.4c0.3-0.6 0.9-1.2 2-1.2 1.1 0 1.6 0.6 1.6 1.6 0 0.6-0.6 0.5-1.9 0.7-1.5 0.2-3 0.5-3 2.3 0 1.4 1.1 2.3 2.6 2.3zm0.2-1c-1 0-1.6-0.5-1.6-1.3 0-0.9 0.8-1.2 1.7-1.3 0.5 0 1.8-0.2 2-0.4v1.1c0 0.9-0.7 1.9-2.1 1.9zm12.3-5.1c-0.4-1.1-1.2-1.8-2.7-1.8-1.7 0-2.9 0.9-2.9 2.2 0 1.1 0.7 1.8 2.1 2.1l1.2 0.3c0.8 0.2 1.2 0.5 1.2 1.1 0 0.6-0.7 1.2-1.8 1.2-1 0-1.6-0.5-1.8-1.3l-1.1 0.3c0.3 1.3 1.4 2 2.9 2 1.8 0 3-1 3-2.3 0-1.1-0.7-1.7-2-2.1l-1.2-0.2c-0.9-0.3-1.3-0.6-1.3-1.2 0-0.6 0.7-1.1 1.7-1.1 1 0 1.4 0.6 1.6 1.1zm6.6-1.7h-1.6v-1.8h-1.2v1.8h-1.1v1h1.1v4.8c0 1.3 1.1 1.9 2.1 1.9 0.4 0 0.7-0.1 0.9-0.1l-0.3-1.1c-0.1 0.1-0.2 0.1-0.5 0.1-0.5 0-1-0.2-1-1.2v-4.4h1.6zm6.3 7.8c1.6 0 2.7-0.8 3.1-2l-1.2-0.3c-0.3 0.8-1 1.2-1.9 1.2-1.4 0-2.3-0.9-2.4-2.5h5.6v-0.5c0-2.8-1.7-3.8-3.3-3.8-2.1 0-3.4 1.6-3.4 4 0 2.3 1.3 3.9 3.5 3.9zm-2.4-4.6c0.1-1.2 1-2.3 2.3-2.3 1.3 0 2.1 1 2.1 2.3zm14.1 4.4h1.1v-7.6h-1.1zm0.6-8.9c0.4 0 0.8-0.4 0.8-0.8 0-0.5-0.4-0.8-0.8-0.8-0.5 0-0.9 0.3-0.9 0.8 0 0.4 0.4 0.8 0.9 0.8zm7.4 1.2h-1.6v-1.8h-1.2v1.8h-1.2v1h1.2v4.8c0 1.3 1.1 2 2.1 2 0.4 0 0.7-0.1 0.8-0.2l-0.2-1c-0.1 0-0.3 0-0.5 0-0.5 0-1-0.1-1-1.1v-4.5h1.6zm8.5 7.7h1.2v-7.7h-1.2zm0.6-8.9c0.5 0 0.8-0.3 0.8-0.8 0-0.4-0.3-0.8-0.8-0.8-0.4 0-0.8 0.4-0.8 0.8 0 0.5 0.4 0.8 0.8 0.8zm5.3 4.3c0-1.3 0.8-2 2-2 1 0 1.7 0.7 1.7 1.9v4.7h1.2v-4.8c0-2-1.1-2.9-2.6-2.9-1.2 0-1.9 0.5-2.2 1.3h-0.1v-1.2h-1.2v7.6h1.2zm11.7-3h-1.6v-1.8h-1.2v1.8h-1.1v1h1.1v4.8c0 1.3 1.1 1.9 2.1 1.9 0.5 0 0.7 0 0.9-0.1l-0.3-1.1c-0.1 0.1-0.2 0.1-0.5 0.1-0.5 0-1-0.2-1-1.2v-4.4h1.6zm6.2 7.8c2.1 0 3.5-1.6 3.5-4 0-2.3-1.4-3.9-3.5-3.9-2 0-3.4 1.6-3.4 3.9 0 2.4 1.4 4 3.4 4zm0-1.1c-1.5 0-2.2-1.3-2.2-2.9 0-1.5 0.7-2.9 2.2-2.9 1.6 0 2.3 1.4 2.3 2.9 0 1.6-0.7 2.9-2.3 2.9zm-247.7 25.8c1 0 1.8-0.6 2.2-1.8l3.3-8.7h-1.3l-2.1 6.1h-0.1l-2.1-6.1h-1.3l2.9 7.7-0.3 0.6c-0.4 1.1-0.9 1.2-1.8 1l-0.3 1.1c0.2 0 0.5 0.1 0.9 0.1zm11.3-2.7c2 0 3.4-1.6 3.4-4 0-2.3-1.4-3.9-3.4-3.9-2.1 0-3.5 1.6-3.5 3.9 0 2.4 1.4 4 3.5 4zm0-1.1c-1.6 0-2.3-1.3-2.3-2.9 0-1.5 0.7-2.9 2.3-2.9 1.5 0 2.2 1.4 2.2 2.9 0 1.6-0.7 2.9-2.2 2.9zm11.4-2.2c0 1.4-1.1 2.1-2 2.1-0.9 0-1.6-0.7-1.6-1.8v-4.8h-1.2v4.8c0 2 1 2.9 2.5 2.9 1.1 0 1.9-0.6 2.2-1.4h0.1v1.3h1.2v-7.6h-1.2zm4.7 3.1h1.2v-4.8c0-1.1 0.8-1.8 1.9-1.8 0.4 0 0.7 0.1 0.8 0.1v-1.2c-0.2 0-0.5 0-0.7 0-0.9 0-1.7 0.5-2 1.2v-1.1h-1.2zm17.4-5.9c-0.4-1.1-1.2-1.9-2.7-1.9-1.6 0-2.8 1-2.8 2.2 0 1.1 0.6 1.8 2 2.1l1.3 0.3c0.8 0.2 1.1 0.6 1.1 1.1 0 0.7-0.7 1.2-1.8 1.2-0.9 0-1.5-0.4-1.7-1.2l-1.2 0.2c0.3 1.3 1.4 2 2.9 2 1.8 0 3-0.9 3-2.3 0-1-0.6-1.7-2-2l-1.1-0.3c-0.9-0.2-1.3-0.5-1.3-1.1 0-0.7 0.7-1.1 1.6-1.1 1 0 1.4 0.5 1.6 1zm3.3 6h1.2v-7.7h-1.2zm0.6-8.9c0.5 0 0.9-0.3 0.9-0.8 0-0.4-0.4-0.8-0.9-0.8-0.4 0-0.8 0.4-0.8 0.8 0 0.5 0.4 0.8 0.8 0.8zm7.5 1.3h-1.6v-1.8h-1.2v1.8h-1.2v1h1.2v4.8c0 1.3 1.1 1.9 2.1 1.9 0.4 0 0.7 0 0.8-0.1l-0.2-1.1c-0.1 0.1-0.3 0.1-0.5 0.1-0.5 0-1-0.2-1-1.1v-4.5h1.6zm6.3 7.8c1.5 0 2.7-0.8 3-1.9l-1.1-0.4c-0.3 0.8-1 1.2-1.9 1.2-1.4 0-2.3-0.9-2.4-2.5h5.5v-0.5c0-2.8-1.6-3.8-3.2-3.8-2.1 0-3.5 1.6-3.5 4 0 2.3 1.4 3.9 3.6 3.9zm-2.4-4.6c0.1-1.2 0.9-2.2 2.3-2.2 1.2 0 2.1 0.9 2.1 2.2z"/>
	<g id="Layer">
		<path id="Layer" class="s7" d="m579.4 222.9c0 5.7 3.3 10.6 8.2 13l-7-18.9c-0.8 1.8-1.2 3.8-1.2 5.9z"/>
		<path id="Layer" class="s7" d="m603.6 222.1c0-1.8-0.6-3-1.2-4-0.7-1.1-1.4-2.2-1.4-3.3 0-1.4 1-2.6 2.4-2.6q0.1 0 0.2 0c-2.5-2.4-6-3.8-9.7-3.8-5.1 0-9.5 2.6-12.1 6.5q0.5 0 0.9 0c1.5 0 3.9-0.1 3.9-0.1 0.7-0.1 0.8 1.1 0.1 1.1 0 0-0.8 0.1-1.7 0.2l5.3 15.7 3.1-9.5-2.2-6.2c-0.8-0.1-1.5-0.2-1.5-0.2-0.8 0-0.7-1.2 0.1-1.1 0 0 2.3 0.1 3.8 0.1 1.5 0 3.8-0.1 3.8-0.1 0.8-0.1 0.9 1.1 0.1 1.1 0 0-0.8 0.1-1.6 0.2l5.2 15.5 1.4-4.8c0.7-2 1.1-3.4 1.1-4.7z"/>
		<path id="Layer" class="s7" d="m594.1 224.1l-4.3 12.6q1.9 0.6 4.1 0.6c1.7 0 3.3-0.3 4.8-0.8q-0.1-0.1-0.1-0.2z"/>
		<path id="Layer" class="s7" d="m606.6 215.9q0.1 0.7 0.1 1.5c0 1.5-0.3 3.1-1.1 5.2l-4.5 12.8c4.3-2.5 7.2-7.2 7.2-12.5 0-2.6-0.6-4.9-1.7-7z"/>
		<path id="Layer" fill-rule="evenodd" class="s7" d="m593.9 239.7c-9.4 0-16.9-7.5-16.9-16.8 0-9.4 7.5-16.9 16.9-16.9 9.3 0 16.8 7.5 16.8 16.9 0 9.3-7.5 16.8-16.8 16.8zm16.1-16.8c0-8.9-7.2-16.1-16.1-16.1-8.9 0-16.1 7.2-16.1 16.1 0 8.9 7.2 16.1 16.1 16.1 8.9 0 16.1-7.2 16.1-16.1z"/>
		<path id="Wordpress " class="s4" aria-label="Wordpress
"  d="m566.5 257h1.4l1.6-5.6h0.1l1.6 5.6h1.4l2.3-8h-1.6l-1.4 5.9h-0.1l-1.6-5.9h-1.4l-1.5 5.9h-0.1l-1.4-5.9h-1.6zm11.7 0.1c1.8 0 2.9-1.2 2.9-3.1 0-1.8-1.1-3.1-2.9-3.1-1.7 0-2.8 1.3-2.8 3.1 0 1.9 1.1 3.1 2.8 3.1zm0-1.1c-0.9 0-1.4-0.9-1.4-2 0-1.1 0.5-2 1.4-2 1 0 1.5 0.9 1.5 2 0 1.1-0.5 2-1.5 2zm4.5 1h1.4v-3.5c0-0.8 0.6-1.3 1.3-1.3 0.3 0 0.6 0 0.7 0.1v-1.3c-0.1-0.1-0.3-0.1-0.5-0.1-0.7 0-1.3 0.4-1.5 1.1v-1h-1.4zm6.7 0.1c1 0 1.5-0.6 1.7-1h0.1v0.9h1.4v-8h-1.4v3h-0.1c-0.2-0.4-0.6-1.1-1.7-1.1-1.4 0-2.5 1.1-2.5 3.1 0 2 1.1 3.1 2.5 3.1zm0.4-1.2c-0.9 0-1.4-0.8-1.4-1.9 0-1.1 0.5-1.9 1.4-1.9 0.9 0 1.4 0.7 1.4 1.9 0 1.2-0.5 1.9-1.4 1.9zm4.7 3.4h1.4v-3.2h0.1c0.2 0.4 0.7 1 1.7 1 1.4 0 2.5-1.1 2.5-3.1 0-2-1.1-3.1-2.5-3.1-1.1 0-1.5 0.7-1.7 1.1h-0.1v-1h-1.4zm1.4-5.3c0-1.1 0.5-1.9 1.4-1.9 0.9 0 1.4 0.8 1.4 1.9 0 1.2-0.5 2-1.4 2-0.9 0-1.4-0.8-1.4-1.9zm5.9 3h1.4v-3.6c0-0.7 0.5-1.3 1.3-1.3 0.3 0 0.6 0.1 0.7 0.1v-1.3c-0.2 0-0.4 0-0.5 0-0.7 0-1.3 0.4-1.5 1.1h-0.1v-1h-1.3zm7.1 0.1c1.4 0 2.4-0.7 2.6-1.8l-1.3-0.1c-0.2 0.5-0.7 0.8-1.3 0.8-0.9 0-1.5-0.6-1.5-1.7h4.2v-0.4c0-2.1-1.3-3-2.8-3-1.7 0-2.8 1.2-2.8 3.1 0 1.9 1.1 3.1 2.9 3.1zm-1.5-3.7c0-0.8 0.6-1.4 1.5-1.4 0.8 0 1.3 0.6 1.3 1.4zm10.5-0.9c-0.2-1-1-1.6-2.4-1.6-1.4 0-2.4 0.7-2.4 1.8 0 0.9 0.5 1.4 1.7 1.7l1 0.2c0.5 0.1 0.8 0.3 0.8 0.7 0 0.4-0.4 0.7-1.1 0.7-0.7 0-1.1-0.3-1.2-0.8l-1.4 0.1c0.2 1.1 1.1 1.8 2.6 1.8 1.5 0 2.5-0.8 2.6-1.9-0.1-0.9-0.6-1.4-1.7-1.7l-1.1-0.2c-0.6-0.1-0.8-0.3-0.8-0.7 0-0.4 0.4-0.7 1-0.7 0.7 0 1 0.4 1.1 0.8zm6.5 0c-0.2-1-1.1-1.7-2.5-1.7-1.4 0-2.4 0.7-2.4 1.8 0 0.9 0.6 1.5 1.7 1.7l1 0.2c0.6 0.2 0.8 0.4 0.8 0.7 0 0.4-0.4 0.7-1.1 0.7-0.6 0-1.1-0.2-1.2-0.8l-1.4 0.2c0.2 1.1 1.2 1.7 2.6 1.7 1.5 0 2.6-0.8 2.6-1.9 0-0.9-0.6-1.4-1.7-1.6l-1-0.2c-0.6-0.2-0.9-0.4-0.9-0.7 0-0.5 0.5-0.7 1.1-0.7 0.6 0 1 0.3 1.1 0.7z"/>
	</g>
	<g id="Folder 1">
		<path id="Layer" fill-rule="evenodd" class="s8" d="m404.5 238.2l-11 2.4-20.3-3.8c0 0 2.6-20.2 2.7-20.9 0.1-0.9 0.2-1 1.2-1.3 0.1 0 1.4-0.4 3.2-1 0.7-2.9 2.9-8.7 7.5-8.7 0.6 0 1.3 0.4 1.8 1.1q0.1 0 0.2 0c2 0 3.1 1.7 3.7 3.5 0.7-0.2 1.1-0.3 1.1-0.3 0.1-0.1 0.5-0.1 0.8 0.1 0.2 0.2 2.1 2.1 2.1 2.1 0 0 2.7 0.2 2.8 0.2 0.2 0 0.3 0.1 0.3 0.3 0.1 0.2 3.9 26.3 3.9 26.3zm-14.2-31c0.2 0.8 0.4 1.7 0.4 2.8q0 0.2 0 0.4l1.7-0.5c-0.4-1.4-1.1-2.5-2.1-2.7zm-4.4 4.7c1.2-0.4 2.4-0.8 3.6-1.1q0-0.1 0-0.2c0-1.4-0.2-2.4-0.5-3.1-1.1 0.4-2.4 1.7-3.1 4.4zm-4.2 1.3l2.8-0.9c0.7-3.5 2.2-5.2 3.7-5.9q-0.3-0.2-0.6-0.2c-3.3 0-5.1 4.3-5.9 7z"/>
		<path id="Layer" class="s9" d="m400.3 211.6c-0.1 0-2.8-0.2-2.8-0.2 0 0-1.9-1.9-2.1-2.1q-0.2-0.1-0.3-0.2l-1.6 31.5 11-2.4c0 0-3.8-26.1-3.9-26.3 0-0.2-0.1-0.3-0.3-0.3z"/>
		<path id="Layer" class="s0" d="m389.8 217.7l-1.4 4c0 0-1.2-0.6-2.6-0.6-2.2 0-2.3 1.3-2.3 1.7 0 1.8 4.8 2.5 4.8 6.8 0 3.4-2.1 5.6-5 5.6-3.5 0-5.3-2.1-5.3-2.1l0.9-3.1c0 0 1.9 1.5 3.4 1.5 1 0 1.4-0.8 1.4-1.3 0-2.4-3.9-2.5-3.9-6.5 0-3.3 2.4-6.6 7.2-6.6 1.9 0 2.8 0.6 2.8 0.6z"/>
		<path id="Shopify" class="s4" aria-label="Shopify"  d="m374.1 251.2h1.4c0-1.4-1.1-2.3-2.9-2.3-1.6 0-2.9 0.9-2.9 2.4 0 1.1 0.8 1.8 2.1 2.1l1 0.2c0.8 0.3 1.4 0.5 1.4 1.1 0 0.7-0.7 1.2-1.6 1.2-0.9 0-1.6-0.4-1.7-1.3h-1.4c0.1 1.6 1.2 2.5 3.1 2.5 1.9 0 3-0.9 3-2.3 0-1.4-1.1-2.1-2.3-2.4l-0.8-0.1c-0.6-0.2-1.3-0.5-1.3-1.1 0-0.6 0.5-1.1 1.4-1.1 0.9 0 1.5 0.4 1.5 1.1zm4.6 2.3c0-0.9 0.5-1.4 1.3-1.4 0.7 0 1.1 0.5 1.1 1.3v3.6h1.5v-3.8c0-1.5-0.9-2.3-2.1-2.3-0.9 0-1.5 0.4-1.8 1.1h-0.1v-3h-1.3v8h1.4zm8.3 3.6c1.8 0 2.9-1.2 2.9-3.1 0-1.8-1.1-3.1-2.9-3.1-1.8 0-2.9 1.3-2.9 3.1 0 1.9 1.1 3.1 2.9 3.1zm0-1.1c-1 0-1.4-0.9-1.4-2 0-1.1 0.4-1.9 1.4-1.9 1 0 1.4 0.8 1.4 1.9 0 1.1-0.4 2-1.4 2zm4.5 3.3h1.4v-3.2c0.2 0.4 0.7 1 1.7 1 1.5 0 2.5-1.1 2.5-3.1 0-2-1.1-3.1-2.5-3.1-1 0-1.5 0.7-1.7 1.1h-0.1v-1h-1.3zm1.3-5.2c0-1.2 0.5-2 1.4-2 1 0 1.5 0.8 1.5 2 0 1.1-0.5 1.9-1.5 1.9-0.9 0-1.4-0.8-1.4-1.9zm5.9 3h1.4v-6h-1.4zm0.7-6.9c0.5 0 0.8-0.3 0.8-0.8 0-0.4-0.3-0.7-0.8-0.7-0.4 0-0.8 0.3-0.8 0.7 0 0.5 0.4 0.8 0.8 0.8zm5.6 0.9h-1.2v-0.5c0-0.5 0.1-0.7 0.7-0.7 0.2 0 0.4 0 0.5 0l0.3-1c-0.2-0.1-0.6-0.2-1.1-0.2-1 0-1.9 0.6-1.9 1.8v0.6h-0.8v1.1h0.8v4.9h1.5v-4.9h1.2zm2.4 8.2c1.1 0 1.7-0.6 2.1-1.5l2.4-6.7h-1.6l-1.3 4.5h-0.1l-1.4-4.5h-1.5l2.2 6.1-0.1 0.3c-0.3 0.7-0.7 0.7-1.3 0.6l-0.3 1.1c0.1 0 0.5 0.1 0.9 0.1z"/>
	</g>
	<g id="Folder 1">
		<path id="Layer" class="s10" d="m477.3 306.4c-3.4 0.3-6-2-6.6-5-0.4-2.2 0.3-4.1 1.8-5.7q4.3-4.2 8.5-8.5c0.5-0.5 0.5-0.5 1 0 0.3 0.3 0.6 0.7 0.9 0.9 0.3 0.3 0.3 0.5 0 0.8q-2.2 2.2-4.5 4.5-2.1 2.1-4.1 4.1c-1.6 1.6-1.6 3.9-0.2 5.4 1.5 1.5 3.8 1.5 5.4-0.1q3.1-3.1 6.3-6.3 1.9-1.9 3.8-3.8c0.3-0.3 0.5-0.3 0.8 0q0.4 0.5 0.9 0.9c0.4 0.3 0.3 0.6 0 0.9q-3.4 3.4-6.8 6.8-1.7 1.6-3.3 3.3c-1 1-2.3 1.6-3.9 1.8z"/>
		<path id="Layer" class="s10" d="m499 304.3q0.7-0.8 1.4-1.4c1.4-1.4 1.5-3.6 0.2-5.1-1.3-1.4-3.5-1.7-5-0.5-0.4 0.3-0.8 0.7-1.2 1q-4.7 4.7-9.4 9.5c-0.4 0.3-0.6 0.3-0.9-0.1-0.3-0.2-0.5-0.5-0.8-0.7-0.5-0.5-0.5-0.5 0-1q3.1-3.2 6.3-6.3 1.9-1.9 3.7-3.7c1.9-1.9 4.1-2.4 6.6-1.5 2.3 0.8 3.6 2.5 4 4.9 0.3 2-0.3 3.8-1.8 5.3q-4.4 4.4-8.7 8.7c-0.3 0.3-0.5 0.3-0.7 0q-0.5-0.5-1.1-1c-0.3-0.3-0.3-0.5 0-0.8q3.7-3.6 7.4-7.3z"/>
		<path id="Layer" class="s10" d="m491.2 305.1q2.7-2.7 5.4-5.4c0.3-0.3 0.5-0.3 0.8 0q0.5 0.5 1 1c0.3 0.3 0.3 0.5 0 0.7q-1.5 1.5-3.1 3.1-3.6 3.6-7.2 7.2c-2.1 2-5.4 2.3-7.8 0.6-0.6-0.3-1-0.8-1.5-1.3-0.2-0.1-0.3-0.3-0.1-0.4q0.7-0.8 1.5-1.6c0.3 0.3 0.6 0.5 0.8 0.8 1.7 1.6 3.9 1.6 5.5 0q2.3-2.3 4.7-4.7z"/>
		<path id="Layer" class="s10" d="m479.6 295.7q3.3-3.4 6.7-6.7c2.3-2.2 5.5-2.6 8.1-0.8 0.5 0.4 0.9 0.9 1.4 1.3 0.1 0.2 0.2 0.3 0 0.5q-0.6 0.6-1.3 1.2c-0.2 0.3-0.4 0.2-0.5 0-0.4-0.3-0.7-0.7-1.1-1-1.5-1-3.4-0.8-4.7 0.4q-5.1 5.1-10.2 10.2c-0.3 0.3-0.6 0.4-0.9 0-0.3-0.4-0.6-0.7-1-1-0.2-0.3-0.2-0.4 0-0.7q1.7-1.7 3.5-3.4z"/>
		<path id="SquareSpace " class="s4" aria-label="SquareSpace
"  d="m455.1 328.2h1.4c0-1.4-1.1-2.3-2.9-2.3-1.6 0-2.9 0.9-2.9 2.4 0 1.1 0.8 1.8 2.1 2.1l1 0.2c0.8 0.3 1.4 0.5 1.4 1.1 0 0.7-0.7 1.2-1.6 1.2-0.9 0-1.6-0.4-1.7-1.3h-1.4c0.1 1.6 1.2 2.5 3.1 2.5 1.9 0 3-0.9 3-2.3 0-1.4-1.1-2.1-2.3-2.4l-0.8-0.1c-0.6-0.2-1.3-0.5-1.3-1.1 0-0.6 0.5-1.1 1.4-1.1 0.9 0 1.5 0.4 1.5 1.1zm7.2 8.1h1.4v-8.3h-1.4v1h-0.1c-0.2-0.4-0.7-1.1-1.7-1.1-1.4 0-2.5 1.1-2.5 3.1 0 2 1.1 3.1 2.5 3.1 1 0 1.5-0.6 1.7-1h0.1zm-1.4-3.3c-1 0-1.5-0.9-1.5-2 0-1.1 0.5-1.9 1.5-1.9 0.9 0 1.4 0.7 1.4 1.9 0 1.2-0.5 2-1.4 2zm8.4-1.5c0 0.9-0.6 1.3-1.2 1.3-0.7 0-1.2-0.4-1.2-1.2v-3.6h-1.4v3.8c0 1.5 0.8 2.3 2 2.3 0.9 0 1.5-0.5 1.8-1.2h0.1v1.1h1.3v-6h-1.4zm5 2.6c1 0 1.5-0.4 1.8-0.9v0.8h1.4v-4c0-1.6-1.3-2-2.5-2-1.2 0-2.2 0.5-2.5 1.6l1.3 0.2c0.2-0.4 0.6-0.8 1.2-0.8 0.7 0 1.1 0.4 1.1 1 0 0.4-0.5 0.4-1.5 0.5-1.2 0.1-2.3 0.5-2.3 1.8 0 1.2 0.9 1.8 2 1.8zm0.4-1c-0.6 0-1-0.3-1-0.8 0-0.5 0.4-0.7 1.1-0.8 0.3-0.1 1.1-0.2 1.3-0.3v0.7c0 0.6-0.6 1.2-1.4 1.2zm4.6 0.9h1.4v-3.5c0-0.8 0.6-1.3 1.4-1.3 0.2 0 0.5 0 0.6 0.1v-1.3c-0.1 0-0.3-0.1-0.5-0.1-0.7 0-1.3 0.4-1.5 1.1v-1h-1.4zm7.1 0.1c1.4 0 2.4-0.6 2.7-1.7l-1.4-0.1c-0.2 0.5-0.6 0.7-1.2 0.7-1 0-1.6-0.6-1.6-1.6h4.2v-0.4c0-2.1-1.3-3-2.7-3-1.7 0-2.9 1.2-2.9 3.1 0 1.8 1.1 3 2.9 3zm-1.5-3.6c0.1-0.8 0.6-1.4 1.5-1.4 0.8 0 1.3 0.5 1.4 1.4zm10.1-2.3h1.4c0-1.3-1.2-2.3-2.9-2.3-1.6 0-2.9 1-2.9 2.4 0 1.1 0.8 1.8 2.1 2.1l0.9 0.3c0.9 0.2 1.5 0.4 1.5 1.1 0 0.7-0.7 1.1-1.6 1.1-0.9 0-1.6-0.4-1.7-1.2h-1.4c0 1.6 1.2 2.4 3.1 2.4 1.9 0 3-0.9 3-2.3 0-1.4-1.1-2-2.3-2.3l-0.8-0.2c-0.6-0.2-1.3-0.4-1.3-1.1 0-0.6 0.5-1.1 1.4-1.1 0.9 0 1.4 0.4 1.5 1.1zm3.1 8.1h1.5v-3.2c0.2 0.4 0.7 1 1.7 1 1.4 0 2.5-1.1 2.5-3.1 0-2-1.1-3-2.5-3-1 0-1.5 0.6-1.7 1h-0.1v-1h-1.4zm1.4-5.2c0-1.2 0.5-1.9 1.4-1.9 1 0 1.5 0.8 1.5 1.9 0 1.1-0.5 1.9-1.5 1.9-0.9 0-1.4-0.8-1.4-1.9zm7.6 3.1c1 0 1.5-0.4 1.8-0.9v0.8h1.4v-4c0-1.6-1.3-2.1-2.4-2.1-1.3 0-2.3 0.6-2.6 1.7l1.3 0.1c0.2-0.4 0.6-0.7 1.3-0.7 0.6 0 1 0.3 1 0.9 0 0.4-0.5 0.5-1.5 0.6-1.2 0.1-2.3 0.4-2.3 1.8 0 1.2 0.9 1.8 2 1.8zm0.4-1c-0.6 0-1-0.3-1-0.8 0-0.6 0.4-0.8 1.1-0.9 0.4 0 1.1-0.1 1.3-0.3v0.7c0 0.7-0.6 1.3-1.4 1.3zm7.2 1c1.5 0 2.5-0.9 2.6-2.2h-1.4c-0.1 0.7-0.5 1-1.2 1-0.9 0-1.4-0.7-1.4-1.9 0-1.2 0.6-2 1.4-2 0.7 0 1.1 0.5 1.2 1.1h1.4c-0.1-1.3-1.1-2.2-2.6-2.2-1.7 0-2.9 1.3-2.9 3.1 0 1.8 1.1 3.1 2.9 3.1zm6.8 0c1.4 0 2.4-0.7 2.6-1.7l-1.3-0.2c-0.2 0.5-0.7 0.8-1.3 0.8-0.9 0-1.5-0.6-1.5-1.6h4.2v-0.5c0-2.1-1.3-3-2.8-3-1.7 0-2.8 1.3-2.8 3.1 0 1.9 1.1 3.1 2.9 3.1zm-1.5-3.7c0-0.8 0.6-1.4 1.4-1.4 0.9 0 1.4 0.6 1.4 1.4z"/>
	</g>
	<g id="Folder 1">
		<path id="Layer" class="s11" d="m393.6 295.3c-0.9 0.5-1.3 1.3-1.3 3.6 0 0 0.5-0.4 1.2-0.7 0.5-0.2 0.9-0.5 1.1-0.7 0.8-0.5 0.9-1.2 0.9-2.5 0 0-1.2 0-1.9 0.3z"/>
		<path id="Layer" class="s10" d="m388.1 295.9c-0.8 0.6-1 1.7-1 1.7l-2.5 9.6-2-7.8c-0.2-0.9-0.6-1.9-1.2-2.6-0.7-0.9-2.2-1-2.4-1-0.1 0-1.6 0.1-2.4 1-0.6 0.7-0.9 1.7-1.1 2.6l-2 7.8-2.5-9.6c0 0-0.2-1-1-1.7-1.2-1.1-3-0.9-3-0.9l4.8 18c0 0 1.5 0.2 2.3-0.2 1-0.5 1.6-0.9 2.1-3.4 0.6-2.2 2.2-8.6 2.3-9 0.1-0.2 0.2-0.8 0.6-0.8 0.4 0 0.5 0.5 0.6 0.8 0.1 0.4 1.6 6.8 2.2 9 0.7 2.5 1.1 2.9 2.2 3.4 0.7 0.4 2.3 0.2 2.3 0.2l4.7-18c0 0-1.8-0.2-3 0.9z"/>
		<path id="Layer" class="s10" d="m395.5 297.9c0 0-0.3 0.5-0.9 0.9-0.5 0.2-0.9 0.4-1.3 0.6-0.8 0.4-1 0.8-1 1.4v0.2 0.9 0.2 10.9c0 0 1.2 0.1 2-0.3 1-0.5 1.2-1 1.2-3.2v-10.9z"/>
		<path id="Layer" class="s10" d="m407.4 304.1l6.1-9c0 0-2.5-0.5-3.8 0.7-0.9 0.7-1.7 2.1-1.7 2.1l-2.2 3.2c-0.1 0.2-0.3 0.3-0.5 0.3-0.2 0-0.3-0.2-0.4-0.3l-2.2-3.2c0 0-0.9-1.3-1.7-2.1-1.3-1.2-3.8-0.7-3.8-0.7l5.9 9-6 8.9c0 0 2.6 0.3 3.9-0.8 0.9-0.7 1.6-2 1.6-2l2.2-3.2c0.2-0.2 0.3-0.3 0.5-0.3 0.2 0 0.4 0.2 0.4 0.3l2.2 3.2c0 0 0.9 1.3 1.6 2 1.3 1.1 3.9 0.8 3.9 0.8z"/>
		<path id="Wix" class="s4" aria-label="Wix"  d="m383.5 334h1.4l1.6-5.6h0.1l1.6 5.6h1.4l2.3-8h-1.6l-1.4 5.9h-0.1l-1.6-5.9h-1.4l-1.5 5.9h-0.1l-1.4-5.9h-1.6zm9.7 0h1.4v-6h-1.4zm0.7-6.9c0.5 0 0.9-0.3 0.9-0.7 0-0.4-0.4-0.8-0.9-0.8-0.4 0-0.8 0.4-0.8 0.8 0 0.4 0.4 0.7 0.8 0.7zm3.7 0.9h-1.5l1.8 3-1.8 3h1.5l1.2-2.2 1.3 2.2h1.5l-1.8-3 1.8-3h-1.5l-1.3 2.2z"/>
	</g>
	<g id="Folder 1">
		<path id="Layer" fill-rule="evenodd" class="s12" d="m406.9 371l-10.5 20.6h-9.8l4.4-8.6h-0.2c-3.7 4.7-9.1 7.8-16.8 8.6v-8.4c0 0 4.9-0.3 7.8-3.4h-7.8v-8.8h8.8v7.2h0.2l3.6-7.2h6.7v7.2h0.2l3.7-7.2z"/>
		<path id="Webflow" class="s4" aria-label="Webflow"  d="m368.5 411h1.4l1.6-5.6h0.1l1.6 5.6h1.4l2.3-8h-1.6l-1.4 5.9h-0.1l-1.6-5.9h-1.4l-1.5 5.9h-0.1l-1.4-5.9h-1.6zm11.8 0.1c1.4 0 2.3-0.7 2.6-1.7l-1.3-0.2c-0.2 0.5-0.7 0.8-1.3 0.8-0.9 0-1.5-0.6-1.5-1.6h4.1v-0.4c0-2.2-1.2-3.1-2.7-3.1-1.7 0-2.8 1.3-2.8 3.1 0 1.9 1.1 3.1 2.9 3.1zm-1.5-3.7c0-0.7 0.6-1.4 1.4-1.4 0.8 0 1.4 0.6 1.4 1.4zm5.8 3.6h1.4v-0.9h0.1c0.2 0.4 0.7 1 1.7 1 1.4 0 2.5-1.1 2.5-3.1 0-2-1.1-3.1-2.5-3.1-1.1 0-1.5 0.7-1.7 1.1h-0.1v-3h-1.4zm1.4-3c0-1.2 0.5-1.9 1.4-1.9 0.9 0 1.4 0.8 1.4 1.9 0 1.1-0.5 1.9-1.4 1.9-0.9 0-1.4-0.7-1.4-1.9zm8.9-3h-1.3v-0.5c0-0.4 0.2-0.7 0.8-0.7 0.2 0 0.4 0 0.5 0.1l0.3-1.1c-0.2-0.1-0.6-0.2-1.1-0.2-1 0-1.9 0.6-1.9 1.8v0.6h-0.9v1.1h0.9v4.9h1.4v-4.9h1.3zm2.9-2h-1.4v8h1.4zm4.5 8.1c1.7 0 2.8-1.2 2.8-3.1 0-1.8-1.1-3.1-2.8-3.1-1.8 0-2.9 1.3-2.9 3.1 0 1.9 1.1 3.1 2.9 3.1zm0-1.1c-1 0-1.5-0.9-1.5-2 0-1.1 0.5-2 1.5-2 0.9 0 1.4 0.9 1.4 2 0 1.1-0.5 2-1.4 2zm5.5 1h1.5l1.1-4.1h0.1l1.1 4.1h1.5l1.7-6h-1.5l-1 4.2h-0.1l-1.1-4.2h-1.4l-1.1 4.2-1.1-4.2h-1.4z"/>
	</g>
	<g id="Layer">
		<path id="Layer" fill-rule="evenodd" class="s13" d="m579.8 296.9c0-2.7 2.2-4.9 4.9-4.9h18.1c2.7 0 4.9 2.2 4.9 4.9v13.5c0 2.7-2.2 4.9-4.9 4.9h-18.1c-2.7 0-4.9-2.2-4.9-4.9zm25.8-2.3c0-0.6-0.4-1-1-1-0.5 0-1 0.4-1 1 0 0.6 0.5 1 1 1 0.6 0 1-0.4 1-1zm-3.6 0c0-0.6-0.4-1-1-1-0.6 0-1 0.4-1 1 0 0.6 0.4 1 1 1 0.6 0 1-0.4 1-1zm-3.6 0c0-0.6-0.5-1-1.1-1-0.5 0-1 0.4-1 1 0 0.6 0.5 1 1 1 0.6 0 1.1-0.4 1.1-1zm-16.6 18.7h23.9v-16.3h-23.9z"/>
		<path id="Layer" class="s14" d="m589.3 311.5q0.1-0.2 0.3-0.3 0.1-0.2 0.4-0.3 0.2-0.1 0.4-0.1 0.3 0 0.5 0.1 0.2 0 0.4 0 0.3 0 0.5-0.1 0.2-0.1 0.3-0.3 0.2-0.1 0.2-0.4 0.1-0.2 0.1-0.4 0-0.2-0.1-0.4-0.1-0.2-0.3-0.4-0.1-0.2-0.3-0.3-0.2-0.1-0.4-0.2-0.2-0.2-0.3-0.4-0.1-0.2-0.1-0.4-0.1-0.2 0-0.4 0-0.3 0.1-0.5 0.1-0.2 0.3-0.4 0.2-0.1 0.4-0.2 0.2-0.1 0.5-0.1 0.2 0 0.4-0.1 0.2-0.1 0.4-0.2 0.2-0.2 0.3-0.4 0.1-0.2 0.1-0.5-0.1-0.2-0.1-0.4-0.1-0.2-0.3-0.4-0.2-0.2-0.4-0.3-0.2-0.1-0.4-0.1h-0.1q-0.2 0-0.4-0.1-0.2 0-0.4-0.2-0.2-0.1-0.3-0.4-0.1-0.2-0.2-0.4 0-0.1 0-0.1 0-0.1 0-0.2 0-0.1 0-0.1 0-0.1 0-0.2 0-0.1 0.1-0.3 0.1-0.1 0.1-0.2 0.1-0.2 0.3-0.3 0.1-0.1 0.2-0.1 0.2-0.2 0.4-0.3 0.1-0.2 0.2-0.4 0.1-0.2 0-0.5 0-0.2-0.1-0.4 0-0.2-0.2-0.4-0.2-0.2-0.4-0.3-0.2-0.1-0.4-0.1-0.2 0-0.4 0.1-0.2 0-0.3 0-0.1 0.1-0.2 0.1-0.1 0-0.2-0.1-0.2 0-0.3 0-0.1-0.1-0.2-0.1-0.1-0.1-0.1-0.1-0.1-0.1-0.2-0.2-0.1 0-0.1-0.1-0.1-0.2-0.2-0.3-0.1-0.2-0.1-0.3 0-0.2 0-0.3 0-0.2 0-0.3h-5.4c2.5 1.3 4.9 4 4.9 7.7 0.1 3.9-2 7-5 8.5h6.1q-0.1-0.1-0.2-0.3-0.1-0.3-0.1-0.5 0-0.2 0.1-0.5 0-0.2 0.2-0.4z"/>
		<path id="Layer" class="s15" d="m597 298.5q0.1 0.2 0.3 0.4 0.1 0.2 0.1 0.4 0.1 0.3 0 0.5 0 0.2-0.1 0.4-0.1 0.3-0.2 0.4-0.2 0.2-0.4 0.3-0.2 0.2-0.4 0.2-0.3 0.1-0.5 0-0.2 0-0.5 0-0.2 0.1-0.4 0.2-0.2 0.2-0.3 0.3-0.1 0.2-0.1 0.5-0.1 0.2 0 0.4 0 0.2 0.1 0.4 0.1 0.2 0.3 0.4 0.2 0.1 0.4 0.2 0.3 0 0.4 0.1 0.2 0.2 0.4 0.4 0.1 0.1 0.2 0.4 0 0.2 0 0.4 0 0.2 0 0.5-0.1 0.2-0.3 0.4-0.1 0.1-0.3 0.2-0.2 0.2-0.4 0.2-0.3 0.1-0.4 0.2-0.2 0.1-0.4 0.2-0.1 0.2-0.2 0.4 0 0.2 0 0.4 0 0.2 0.1 0.4 0 0.3 0.2 0.4 0.2 0.2 0.4 0.3 0.2 0.1 0.5 0.1 0.1 0 0.2 0 0.2-0.1 0.4 0 0.3 0 0.5 0.1 0.2 0.2 0.3 0.4 0.2 0.1 0.2 0.4 0.1 0.2 0.1 0.5 0 0.2 0 0.3 0 0.2-0.1 0.3-0.1 0.2-0.2 0.3-0.1 0.1-0.2 0.2-0.2 0.2-0.3 0.4-0.1 0.2-0.2 0.4 0 0.2 0 0.4 0.1 0.3 0.2 0.5 0.1 0 0.1 0.1 0.1 0.1 0.2 0.2 0.1 0.1 0.2 0.1 0.1 0.1 0.2 0.1h7.2c-2.3-1.1-4.4-3.3-4.9-6.3-0.8-4.4 1.3-8.2 4.7-9.9h-7.4q-0.1 0.1-0.2 0.4 0 0.2 0 0.4 0 0.2 0.2 0.4 0.1 0.2 0.3 0.3z"/>
		<path id="Layer" class="s14" d="m599 313.5h-0.2q0.1 0 0.2 0z"/>
		<path id="ClickFunnels" class="s4" aria-label="ClickFunnels"  d="m565.6 328.7c-0.2-1.8-1.6-2.8-3.4-2.8-2 0-3.6 1.5-3.6 4.1 0 2.6 1.5 4.1 3.6 4.1 2 0 3.2-1.2 3.4-2.7l-1.4-0.1c-0.2 1-1 1.5-1.9 1.5-1.3 0-2.3-1-2.3-2.8 0-1.8 1-2.8 2.3-2.8 0.9 0 1.7 0.5 1.9 1.5zm3-2.7h-1.4v8h1.4zm1.9 8h1.4v-6h-1.4zm0.7-6.9c0.4 0 0.8-0.3 0.8-0.7 0-0.4-0.4-0.8-0.8-0.8-0.5 0-0.8 0.4-0.8 0.8 0 0.4 0.3 0.7 0.8 0.7zm5.2 7c1.5 0 2.4-0.9 2.5-2.2h-1.3c-0.2 0.7-0.6 1.1-1.2 1.1-0.9 0-1.5-0.8-1.5-2 0-1.2 0.6-1.9 1.5-1.9 0.6 0 1.1 0.4 1.2 1h1.3c-0.1-1.3-1.1-2.2-2.6-2.2-1.7 0-2.8 1.3-2.8 3.1 0 1.8 1.1 3.1 2.9 3.1zm4.1-0.1h1.4v-2l0.5-0.6 1.8 2.6h1.7l-2.4-3.4 2.3-2.6h-1.7l-2.1 2.4h-0.1v-4.4h-1.4zm6.7 0h1.4v-3.4h3.3v-1.2h-3.3v-2.2h3.7v-1.2h-5.1zm10.2-2.5c0 0.9-0.7 1.3-1.3 1.3-0.7 0-1.1-0.4-1.1-1.2v-3.6h-1.4v3.8c0 1.5 0.8 2.3 2 2.3 0.9 0 1.5-0.5 1.8-1.2v1.1h1.4v-6h-1.4zm4.7-1c0-0.9 0.5-1.4 1.2-1.4 0.8 0 1.2 0.5 1.2 1.3v3.6h1.4v-3.8c0-1.4-0.8-2.3-2-2.3-0.9 0-1.6 0.5-1.8 1.1h-0.1v-1h-1.4v6h1.5zm7 0c0-0.8 0.6-1.3 1.3-1.3 0.7 0 1.2 0.4 1.2 1.2v3.6h1.4v-3.8c0-1.4-0.8-2.2-2.1-2.2-0.9 0-1.5 0.4-1.7 1.1h-0.1v-1.1h-1.4v6h1.4zm8.4 3.7c1.4 0 2.3-0.7 2.6-1.8l-1.3-0.1c-0.2 0.5-0.7 0.8-1.3 0.8-0.9 0-1.5-0.6-1.5-1.7h4.2v-0.4c0-2.1-1.3-3-2.8-3-1.7 0-2.8 1.2-2.8 3.1 0 1.9 1.1 3.1 2.9 3.1zm-1.5-3.7c0-0.8 0.6-1.4 1.4-1.4 0.8 0 1.4 0.6 1.4 1.4zm7.2-4.4h-1.4v8h1.4zm6.5 3.5c-0.2-1-1-1.6-2.4-1.6-1.4 0-2.4 0.7-2.4 1.8 0 0.9 0.5 1.5 1.7 1.7l1 0.2c0.6 0.1 0.8 0.3 0.8 0.7 0 0.4-0.4 0.7-1.1 0.7-0.6 0-1.1-0.3-1.2-0.8l-1.4 0.1c0.2 1.1 1.1 1.8 2.6 1.8 1.5 0 2.6-0.8 2.6-1.9 0-0.9-0.6-1.4-1.7-1.7l-1-0.2c-0.6-0.1-0.9-0.3-0.9-0.7 0-0.4 0.5-0.7 1.1-0.7 0.6 0 0.9 0.4 1.1 0.8z"/>
	</g>
	<g id="unbounce">
		<path id="Fill-1" fill-rule="evenodd" class="s16" d="m486.5 394c-8 0-14.5-6.5-14.5-14.5 0-8 6.5-14.5 14.5-14.5 8 0 14.5 6.5 14.5 14.5 0 8-6.5 14.5-14.5 14.5zm-2.9-4.3c2-7 3.4-11 4.4-13.7 1-2.6 1.4-4.2 2.5-6.3 0.5-1.1-0.7-1.1-1.5-0.2-0.5 0.5-0.9 1-1.2 1.6-5-0.5-8.8 2.1-9.5 7.2-0.6 3.7 1.5 6.9 4.7 8.5q-0.3 1.4-0.5 2.9c-0.1 0.5 1 0.6 1.1 0zm6.8-17.7c-0.4 1.1-0.6 1.7-0.9 2.6-0.2 0.6 0.3 1 0.9 1.7 0.7 1 1.1 2.3 1 3.7-0.3 1.9-1.6 3.4-3.3 4-0.8 0.3-1.8 0.5-2.1 1-0.4 0.9-0.5 1.4-0.9 2.5 4.5 0.5 9-2.3 9.7-7.1 0.4-3.5-1.4-6.8-4.4-8.4z"/>
		<path id="Fill-2" class="s16" d="m481.6 378.7c-0.1 1.3 0.2 2.6 0.9 3.5 0.5 0.7 0.9 1 1 1.3 0.6-3.1 1-4.8 1.6-6.6 0.3-0.8 0.7-1.8 1-2.6-0.4 0.2-0.9 0.3-1.3 0.5-1.7 0.6-2.9 2.1-3.2 3.9z"/>
		<path id="Unbounce" class="s4" aria-label="Unbounce"  d="m464.8 403v5.1c0 1-0.7 1.7-1.8 1.7-1.1 0-1.8-0.7-1.8-1.7v-5.1h-1.4v5.2c0 1.7 1.3 2.9 3.2 2.9 2 0 3.3-1.2 3.3-2.9v-5.2zm4.7 4.5c0-0.9 0.6-1.4 1.3-1.4 0.7 0 1.2 0.5 1.2 1.3v3.6h1.4v-3.8c0-1.5-0.8-2.3-2.1-2.3-0.9 0-1.5 0.5-1.7 1.1h-0.1v-1h-1.4v6h1.4zm5.8 3.5h1.4v-0.9h0.1c0.2 0.4 0.6 1 1.7 1 1.4 0 2.4-1.1 2.4-3.1 0-2-1-3.1-2.4-3.1-1.1 0-1.5 0.7-1.7 1.1h-0.1v-3h-1.4zm1.4-3c0-1.1 0.5-1.9 1.4-1.9 0.9 0 1.4 0.8 1.4 1.9 0 1.1-0.5 2-1.4 2-0.9 0-1.4-0.8-1.4-2zm8.5 3.1c1.7 0 2.8-1.2 2.8-3.1 0-1.8-1.1-3.1-2.8-3.1-1.8 0-2.9 1.3-2.9 3.1 0 1.9 1.1 3.1 2.9 3.1zm0-1.1c-1 0-1.5-0.9-1.5-2 0-1.1 0.5-1.9 1.5-1.9 0.9 0 1.4 0.8 1.4 1.9 0 1.1-0.5 2-1.4 2zm8.2-1.5c0 0.9-0.6 1.4-1.2 1.4-0.7 0-1.2-0.5-1.2-1.3v-3.6h-1.4v3.8c0 1.5 0.8 2.3 2 2.3 0.9 0 1.5-0.5 1.8-1.2h0.1v1.1h1.4v-6h-1.5zm4.7-1c0-0.8 0.5-1.3 1.3-1.3 0.7 0 1.1 0.4 1.1 1.2v3.6h1.5v-3.8c0-1.4-0.9-2.2-2.1-2.2-0.9 0-1.5 0.4-1.8 1.1h-0.1v-1.1h-1.3v6h1.4zm8.3 3.7c1.5 0 2.5-0.9 2.6-2.2h-1.4c-0.1 0.6-0.6 1-1.2 1-0.9 0-1.4-0.7-1.4-1.9 0-1.3 0.5-2 1.4-2 0.7 0 1.1 0.5 1.2 1h1.4c-0.1-1.3-1.1-2.1-2.6-2.1-1.8 0-2.9 1.2-2.9 3.1 0 1.8 1.1 3.1 2.9 3.1zm6.8 0c1.4 0 2.3-0.7 2.6-1.8l-1.3-0.1c-0.2 0.5-0.7 0.8-1.3 0.8-0.9 0-1.5-0.6-1.5-1.7h4.1v-0.4c0-2.1-1.2-3-2.7-3-1.7 0-2.8 1.2-2.8 3.1 0 1.9 1.1 3.1 2.9 3.1zm-1.5-3.7c0-0.8 0.6-1.4 1.4-1.4 0.8 0 1.4 0.6 1.4 1.4z"/>
	</g>
	<g id="Folder 1">
		<path id="Weebly" class="s4" aria-label="Weebly"  d="m576.5 411h1.4l1.6-5.6h0.1l1.6 5.6h1.4l2.3-8h-1.6l-1.4 5.9h-0.1l-1.6-5.9h-1.4l-1.5 5.9h-0.1l-1.4-5.9h-1.6zm11.8 0.1c1.4 0 2.3-0.7 2.6-1.7l-1.3-0.2c-0.2 0.5-0.7 0.8-1.3 0.8-0.9 0-1.5-0.6-1.5-1.6h4.1v-0.4c0-2.2-1.2-3.1-2.7-3.1-1.7 0-2.8 1.3-2.8 3.1 0 1.9 1.1 3.1 2.9 3.1zm-1.5-3.7c0-0.7 0.6-1.4 1.4-1.4 0.8 0 1.4 0.6 1.4 1.4zm8.4 3.7c1.4 0 2.4-0.7 2.6-1.7l-1.3-0.2c-0.2 0.5-0.7 0.8-1.3 0.8-0.9 0-1.5-0.6-1.5-1.6h4.2v-0.4c0-2.2-1.3-3.1-2.8-3.1-1.7 0-2.8 1.3-2.8 3.1 0 1.9 1.1 3.1 2.9 3.1zm-1.5-3.7c0-0.7 0.6-1.4 1.4-1.4 0.8 0 1.4 0.6 1.4 1.4zm5.8 3.6h1.4v-0.9h0.1c0.2 0.4 0.7 1 1.7 1 1.4 0 2.5-1.1 2.5-3.1 0-2-1.1-3.1-2.5-3.1-1 0-1.5 0.7-1.7 1.1h-0.1v-3h-1.4zm1.4-3c0-1.2 0.5-1.9 1.4-1.9 1 0 1.4 0.8 1.4 1.9 0 1.1-0.4 1.9-1.4 1.9-0.9 0-1.4-0.7-1.4-1.9zm7.3-5h-1.4v8h1.4zm2.7 10.3c1.1-0.1 1.7-0.6 2.1-1.6l2.4-6.7h-1.5l-1.4 4.5h-0.1l-1.3-4.5h-1.5l2.1 6.1-0.1 0.3c-0.3 0.7-0.7 0.8-1.3 0.6l-0.3 1.1c0.2 0.1 0.5 0.1 0.9 0.1z"/>
		<path id="Layer" fill-rule="evenodd" class="s17" d="m609 372.2c0 0.9-0.3 1.6-0.5 2.3q-0.1 0.2-0.1 0.4l-0.1 0.1-4 11.4c-1.4 3.8-4.1 4.3-5.6 4.3-2.4 0-4.3-1.2-5.2-3.4-1 2.2-2.8 3.4-5.2 3.4-1.5 0-4.3-0.5-5.6-4.3l-4-11.4c-0.4-1-0.7-2-0.7-3.2 0-2.7 2.3-4.8 5.3-4.8 2.4 0 4.4 1.6 5 4 1.1-3.6 4-4 5.2-4 1.2 0 4 0.4 5.1 4 0.6-2.4 2.7-4 5.1-4 3 0 5.3 2.2 5.3 5.2zm-3 0c0-1.4-0.9-2.3-2.3-2.3-1.2 0-2 0.8-2.3 1.9l-2.7 9h-0.1l-2.7-8.8c-0.4-1.3-1-2.1-2.4-2.1-1.4 0-2.1 0.8-2.4 2.1l-2.8 8.8h-0.1l-2.7-9c-0.2-1.1-1.1-1.9-2.2-1.9-1.4 0-2.4 0.9-2.4 1.9 0 0.7 0.2 1.3 0.5 2.3l4 11.3c0.5 1.4 1.3 2.4 2.9 2.4 1.4 0 2.3-0.8 2.7-2.2l2.4-7.6h0.1l2.4 7.6c0.5 1.4 1.3 2.2 2.8 2.2 1.5 0 2.3-1 2.8-2.4l4.1-11.4c0.2-0.7 0.4-1.3 0.4-1.8z"/>
	</g>
	<g id="Layer">
		<path id="Layer" class="s18" d="m490.3 237.4l-5.1-5.1 11-11.2 5.2 5.3z"/>
		<path id="Layer" class="s19" d="m490.4 215.3l-5.3-5.2-11 11c-1.5 1.5-1.5 3.8 0 5.3q0 0 0 0l11 11 5.2-5.1-8.4-8.5z"/>
		<path id="Layer" class="s18" d="m501.4 221.1l-11-11c-1.5-1.5-3.8-1.5-5.3 0-1.4 1.4-1.4 3.8 0 5.2l11.1 11.1c1.5 1.4 3.8 1.4 5.2 0 1.5-1.5 1.5-3.8 0-5.3z"/>
		<path id="Layer" class="s20" d="m487.7 238.5c-2 0-3.6-1.6-3.6-3.6 0-2.1 1.6-3.7 3.6-3.7 2 0 3.7 1.6 3.7 3.7 0 2-1.7 3.6-3.7 3.6z"/>
		<path id="GTM" class="s4" aria-label="GTM"  d="m481.1 251.6h1.5c-0.2-1.6-1.6-2.7-3.4-2.7-2 0-3.6 1.5-3.6 4.1 0 2.5 1.5 4.1 3.7 4.1 2 0 3.4-1.3 3.4-3.3v-1h-3.3v1.1h1.9c0 1.2-0.8 1.9-2 1.9-1.3 0-2.3-1-2.3-2.8 0-1.8 1-2.8 2.3-2.8 0.9 0 1.6 0.5 1.8 1.4zm2.7-1.4h2.5v6.8h1.4v-6.8h2.5v-1.2h-6.4zm8-1.2v8h1.4v-5.5h0.1l2.2 5.5h1l2.2-5.5h0.1v5.5h1.4v-8h-1.8l-2.4 5.8h-0.1l-2.3-5.8z"/>
	</g>
</svg>