<svg version="1.2" xmlns="http://www.w3.org/2000/svg" viewBox="0 0 682 464" width="682" height="464">
	<title>install(2)</title>
	<style>
		.s0 { fill: #ffffff } 
		.s1 { fill: #ebebeb } 
		.s2 { fill: #cdcdcd } 
		.s3 { fill: #3e3f3f } 
		.s4 { fill: #252525 } 
		.s5 { fill: #f5f5f5 } 
		.s6 { fill: none;stroke: #161616;stroke-miterlimit:100;stroke-width: 2 } 
	</style>
	<g id="Folder 4">
		<g id="Folder 2">
			<g id="Clip-Path">
				<g id="Layer">
					<g id="Layer">
						<g id="Layer">
							<path id="Layer" class="s0" d="m682 463c0 0.1-682 1-682 1 0-0.1 0-361.1 0-361.1l682 0.1c0 0 0 357.4 0 360z"/>
						</g>
					</g>
					<g id="Layer">
						<g id="Layer">
							<path id="Layer" class="s1" d="m0 8c0-4.4 3.6-8 8-8h666c4.4 0 8 3.6 8 8v98h-682z"/>
						</g>
					</g>
					<g id="Layer">
						<g id="Layer">
							<path id="Layer" class="s0" d="m44 33h530c11 0 20 9 20 20 0 11-9 20-20 20h-530c-11 0-20-9-20-20 0-11 9-20 20-20z"/>
						</g>
					</g>
					<g id="Layer">
						<g id="Layer">
							<path id="Layer" class="s1" d="m76 47h222c3.3 0 6 2.7 6 6 0 3.3-2.7 6-6 6h-222c-3.3 0-6-2.7-6-6 0-3.3 2.7-6 6-6z"/>
						</g>
					</g>
					<g id="Layer">
						<g id="Layer">
							<path id="Layer" class="s1" d="m49.1 61.7c-4.8 0-8.7-3.9-8.7-8.7 0-4.8 3.9-8.8 8.7-8.8 4.9 0 8.8 4 8.8 8.8 0 4.8-3.9 8.7-8.8 8.7z"/>
						</g>
						<g id="Layer">
							<path id="Layer" fill-rule="evenodd" class="s2" d="m52.2 58.4q0.3-0.2 0.6-0.5c0.3-0.3 0.6-1 0.6-1.5 0-0.3-0.2-0.7-0.4-0.9l-0.6-0.6c-0.3-0.3-0.7-0.5-1.1-0.5h-2.9c-0.2-0.1-0.4-0.4-0.6-0.7-0.3-0.3-0.6-0.7-0.8-0.7q-0.7 0-1.4-0.3l-0.5-0.2q-0.2-0.2-0.2-0.5c0-0.2 0.1-0.5 0.3-0.5l1.4-0.5h0.2c0.2 0 0.4 0 0.5 0.1l0.4 0.4q0.1 0.1 0.2 0.1h0.3c0.3 0 0.4-0.3 0.3-0.5l-0.7-1.4q0 0 0-0.1 0 0-0.1-0.1 0-0.1 0.2-0.2l0.4-0.4q0.1-0.2 0.2-0.2h0.4c0.1 0 0.3 0 0.3 0l0.4-0.4c0.1-0.1 0.1-0.4 0-0.5l-0.3-0.2c-0.1-0.1-0.1-0.4 0-0.5l0.5-0.5 0.2-0.2c0.3-0.2 0.3-0.7 0-1l-1.1-1.1q0.1-0.1 0.2-0.1c3.5 0 6.4 2 7.9 4.9l-0.6 0.3c-0.1 0.1-0.3 0.1-0.4 0.3l-0.8 1.3c-0.1 0.2-0.2 0.4-0.2 0.6 0 0.2 0.1 0.4 0.2 0.6l0.8 1.2q0.2 0.3 0.6 0.4l1.2 0.3c-0.5 3.7-3.2 6.6-6.8 7.4l0.8-1.9c0.1-0.3 0.1-0.5 0.2-0.7q0-0.3 0.2-0.5zm-11.8-5.4c0-1.2 0.2-2.4 0.7-3.5 0.4 0.7 1 1.6 1.5 2.2 0.1 0.2 0.5 0.7 0.8 0.9 0.4 0.4 0.9 0.7 1.4 1 0.6 0.3 1.5 0.8 2.2 1.1 0.4 0.3 0.7 0.8 0.7 1.3v1.4q0 0.6 0.4 1c0.7 0.7 1.1 1.7 1 2.3v1c-4.8 0-8.7-3.9-8.7-8.7zm7.3-8.6v0.4c0 0.5-0.6 0.8-1.1 0.6l-0.9-0.5q1-0.4 2-0.5z"/>
						</g>
					</g>
					<g id="Layer">
						<g id="Layer">
							<g id="Folder 5">
								<path id="Layer" class="s3" d="m256.4 399.8c0-2.2 1.8-4 4-4h151.2c2.2 0 4 1.8 4 4v35.4c0 2.2-1.8 4-4 4h-151.2c-2.2 0-4-1.8-4-4z"/>
								<path id="CREATE" class="s0" aria-label="CREATE"  d="m310.7 415.6c-0.3-2.6-2.3-4.1-4.9-4.1-3 0-5.3 2.2-5.3 6 0 3.7 2.2 5.9 5.3 5.9 2.8 0 4.6-1.8 4.9-4h-2.1c-0.3 1.4-1.4 2.1-2.8 2.1-1.9 0-3.2-1.4-3.2-4 0-2.7 1.3-4.1 3.2-4.1 1.4 0 2.5 0.8 2.8 2.2zm5.7 7.7h2.1v-4.3h2.1l2.3 4.3h2.4l-2.5-4.6c1.3-0.6 2-1.8 2-3.3 0-2.2-1.4-3.7-4-3.7h-4.4zm2.1-6v-3.9h1.9c1.6 0 2.3 0.7 2.3 2 0 1.2-0.7 1.9-2.3 1.9zm12.1 6h7.6v-1.8h-5.5v-3.2h5.1v-1.7h-5.1v-3.2h5.5v-1.7h-7.6zm15 0l0.9-2.9h4.4l1 2.9h2.2l-4.1-11.7h-2.6l-4.1 11.7zm1.6-4.6l1.5-4.7h0.1l1.6 4.7zm10.4-5.3h3.6v9.9h2.1v-9.9h3.5v-1.8h-9.2zm14.8 9.9h7.6v-1.8h-5.5v-3.1h5.1v-1.8h-5.1v-3.2h5.5v-1.7h-7.6z"/>
							</g>
						</g>
					</g>
					<g id="Layer">
					</g>
				</g>
			</g>
			<g id="Layer">
			</g>
			<g id="Folder 3">
				<path id="CREATE CHATBOT" class="s4" aria-label="CREATE CHATBOT"  d="m50.9 142.4c-0.5-3.3-2.9-5.1-6.2-5.1-3.8 0-6.6 2.7-6.6 7.4 0 4.7 2.8 7.5 6.6 7.5 3.5 0 5.8-2.2 6.2-5h-2.7c-0.3 1.7-1.7 2.6-3.4 2.6-2.4 0-4.1-1.7-4.1-5.1 0-3.3 1.7-5.1 4.1-5.1 1.7 0 3.1 1 3.4 2.8zm4.5 9.6h2.6v-5.3h2.7l2.8 5.3h3l-3.2-5.8c1.7-0.7 2.6-2.1 2.6-4.1 0-2.8-1.8-4.6-5.1-4.6h-5.4zm2.6-7.6v-4.8h2.4c2 0 2.8 0.9 2.8 2.5 0 1.5-0.8 2.3-2.8 2.3zm12.4 7.6h9.5v-2.3h-6.9v-3.9h6.4v-2.2h-6.4v-4h6.9v-2.2h-9.5zm16 0l1.2-3.6h5.5l1.2 3.6h2.8l-5.1-14.5h-3.3l-5.1 14.5zm1.9-5.7l2-5.9h0.1l2 5.9zm10.3-6.6h4.4v12.3h2.7v-12.3h4.5v-2.2h-11.6zm15.8 12.3h9.5v-2.2h-6.9v-4h6.4v-2.2h-6.4v-3.9h6.8v-2.2h-9.4zm33.6-9.7c-0.5-3.2-3-5.1-6.2-5.1-3.8 0-6.7 2.8-6.7 7.5 0 4.7 2.9 7.5 6.7 7.5 3.5 0 5.7-2.3 6.2-5.1h-2.7c-0.3 1.7-1.7 2.7-3.5 2.7-2.3 0-4-1.8-4-5.1 0-3.3 1.7-5.1 4-5.1 1.8 0 3.2 1 3.5 2.7zm4.4 9.7h2.7v-6.2h6.7v6.2h2.6v-14.6h-2.6v6.2h-6.7v-6.2h-2.7zm18.8 0l1.2-3.6h5.4l1.2 3.6h2.9l-5.2-14.5h-3.2l-5.1 14.5zm1.9-5.7l1.9-5.9h0.1l2 5.9zm10.3-6.6h4.5v12.3h2.6v-12.3h4.5v-2.2h-11.6zm15.8 12.3h5.9c3.4 0 5-1.7 5-4 0-2.2-1.6-3.5-3.1-3.5v-0.2c1.4-0.3 2.5-1.3 2.5-3.1 0-2.1-1.5-3.7-4.7-3.7h-5.6zm2.7-2.2v-4.3h2.9c1.6 0 2.6 1 2.6 2.3 0 1.1-0.8 2-2.7 2zm0-6.2v-4h2.7c1.5 0 2.3 0.8 2.3 1.9 0 1.3-1 2.1-2.4 2.1zm25.5 1.1c0-4.7-2.8-7.5-6.7-7.5-3.8 0-6.6 2.8-6.6 7.5 0 4.7 2.8 7.5 6.6 7.5 3.9 0 6.7-2.8 6.7-7.5zm-2.6 0c0 3.3-1.7 5.1-4.1 5.1-2.3 0-4-1.8-4-5.1 0-3.3 1.7-5.1 4-5.1 2.4 0 4.1 1.8 4.1 5.1zm5.9-5.1h4.5v12.4h2.6v-12.4h4.5v-2.2h-11.6z"/>
			</g>
			<g id="Folder 6">
				<path id="Layer" class="s5" d="m36 187c0-4.4 3.6-8 8-8h581c4.4 0 8 3.6 8 8v40c0 4.4-3.6 8-8 8h-581c-4.4 0-8-3.6-8-8z"/>
				<path id="SETTINGS" class="s4" aria-label="SETTINGS"  d="m115.8 204.3h2.1c0-2-1.7-3.4-4.3-3.4-2.4 0-4.3 1.4-4.3 3.5 0 1.7 1.2 2.7 3.2 3.2l1.3 0.3c1.3 0.3 2.1 0.7 2.1 1.6 0 1.1-0.9 1.7-2.3 1.7-1.4 0-2.4-0.6-2.5-1.8h-2.1c0.1 2.3 1.8 3.7 4.6 3.7 2.8 0 4.4-1.5 4.5-3.5-0.1-2.1-1.7-3-3.5-3.4l-1.1-0.3c-1-0.2-2-0.7-2-1.6 0-0.9 0.8-1.6 2.1-1.6 1.3 0 2.1 0.6 2.2 1.6zm5.8 8.6h7.7v-1.8h-5.6v-3.2h5.2v-1.8h-5.2v-3.2h5.6v-1.8h-7.7zm10.9-10h3.7v10h2.1v-10h3.7v-1.8h-9.5zm12.4 0h3.6v10h2.1v-10h3.7v-1.8h-9.4zm15-1.8h-2.2v11.8h2.2zm13.6 0h-2.1v8h-0.1l-5.6-8h-1.9v11.8h2.1v-8h0.1l5.6 8h1.9zm11.8 3.8h2.2c-0.3-2.4-2.3-4-5-4-3 0-5.4 2.3-5.4 6.1 0 3.7 2.3 6.1 5.5 6.1 2.9 0 5-1.9 5-5v-1.4h-4.8v1.7h2.8c-0.1 1.7-1.2 2.7-3 2.7-2 0-3.3-1.4-3.3-4.1 0-2.7 1.4-4.2 3.3-4.2 1.4 0 2.4 0.8 2.7 2.1zm12.4-0.6h2.1c-0.1-2-1.8-3.4-4.3-3.4-2.4 0-4.3 1.4-4.3 3.5 0 1.7 1.2 2.7 3.1 3.2l1.4 0.3c1.3 0.3 2.1 0.7 2.1 1.7 0 1-1 1.6-2.4 1.6-1.3 0-2.3-0.6-2.4-1.8h-2.1c0.1 2.4 1.8 3.7 4.6 3.7 2.8 0 4.4-1.4 4.4-3.5 0-2.1-1.7-3-3.4-3.4l-1.1-0.3c-1-0.2-2-0.6-2-1.6 0-0.9 0.8-1.6 2.1-1.6 1.3 0 2.1 0.6 2.2 1.6z"/>
				<path id="Shape 1" class="s3" d="m69.5 223c-9.1 0-16.5-7.4-16.5-16.5 0-9.1 7.4-16.5 16.5-16.5 9.1 0 16.5 7.4 16.5 16.5 0 9.1-7.4 16.5-16.5 16.5z"/>
				<path id="1" class="s0" aria-label="1"  d="m70.8 201.2h-2l-2.9 1.9v1.9l2.7-1.7h0.1v9.7h2.1z"/>
			</g>
			<g id="Folder 6 copy">
				<path id="Layer" class="s5" d="m36 256c0-4.4 3.6-8 8-8h581c4.4 0 8 3.6 8 8v40c0 4.4-3.6 8-8 8h-581c-4.4 0-8-3.6-8-8z"/>
				<path id="APPEARANCE" class="s4" aria-label="APPEARANCE"  d="m110.9 281.9l1-2.9h4.4l1 2.9h2.3l-4.2-11.8h-2.6l-4.1 11.8zm1.5-4.7l1.6-4.7h0.1l1.6 4.7zm10.3 4.7h2.1v-4h2.3c2.7 0 4.2-1.6 4.2-3.9 0-2.3-1.5-3.9-4.2-3.9h-4.4zm2.1-5.8v-4.2h2c1.6 0 2.3 0.8 2.3 2.1 0 1.2-0.7 2.1-2.3 2.1zm9.9 5.8h2.2v-4h2.2c2.7 0 4.2-1.6 4.2-3.9 0-2.3-1.4-3.9-4.2-3.9h-4.4zm2.2-5.8v-4.2h1.9c1.6 0 2.3 0.8 2.3 2.1 0 1.2-0.7 2.1-2.3 2.1zm10 5.8h7.7v-1.8h-5.6v-3.2h5.1v-1.8h-5.1v-3.2h5.5v-1.8h-7.6zm13 0l0.9-2.9h4.5l0.9 2.9h2.3l-4.1-11.8h-2.7l-4.1 11.8zm1.5-4.7l1.6-4.7h0.1l1.6 4.7zm10.3 4.7h2.1v-4.3h2.2l2.3 4.3h2.4l-2.5-4.7c1.4-0.6 2.1-1.7 2.1-3.4 0-2.2-1.5-3.7-4.2-3.7h-4.4zm2.1-6.1v-3.9h2c1.6 0 2.3 0.7 2.3 1.9 0 1.3-0.7 2-2.3 2zm11.6 6.1l0.9-2.9h4.5l1 2.9h2.2l-4.1-11.8h-2.7l-4.1 11.8zm1.5-4.7l1.6-4.7h0.1l1.6 4.7zm20-7.1h-2.1v8h-0.1l-5.6-8h-1.9v11.8h2.2v-8.1h0.1l5.5 8.1h1.9zm14.1 4c-0.4-2.7-2.4-4.2-5-4.2-3.1 0-5.4 2.3-5.4 6.1 0 3.8 2.3 6 5.4 6 2.8 0 4.6-1.8 5-4h-2.2c-0.3 1.3-1.4 2.1-2.8 2.1-1.9 0-3.3-1.4-3.3-4.1 0-2.7 1.4-4.2 3.3-4.2 1.4 0 2.6 0.8 2.8 2.3zm3.6 7.8h7.7v-1.8h-5.6v-3.2h5.2v-1.8h-5.2v-3.2h5.6v-1.8h-7.7z"/>
				<path id="Shape 1" class="s3" d="m69.5 292c-9.1 0-16.5-7.4-16.5-16.5 0-9.1 7.4-16.5 16.5-16.5 9.1 0 16.5 7.4 16.5 16.5 0 9.1-7.4 16.5-16.5 16.5z"/>
				<path id="2" class="s0" aria-label="2"  d="m65 281h8.1v-1.8h-5.1v-0.1l2-2c2.3-2.2 3-3.3 3-4.6 0-2-1.6-3.5-4-3.5-2.4 0-4 1.5-4 3.7h2c0-1.2 0.8-1.9 1.9-1.9 1.2 0 2 0.7 2 1.8 0 1-0.6 1.7-1.8 2.8l-4.1 4.1z"/>
			</g>
			<g id="Folder 6 copy 2">
				<path id="Layer" class="s5" d="m36 325c0-4.4 3.6-8 8-8h581c4.4 0 8 3.6 8 8v40c0 4.4-3.6 8-8 8h-581c-4.4 0-8-3.6-8-8z"/>
				<path id="TARGETING" class="s4" aria-label="TARGETING"  d="m108.9 340.9h3.7v10h2.1v-10h3.6v-1.8h-9.4zm12.9 10l1-2.9h4.4l1 2.9h2.3l-4.2-11.8h-2.6l-4.1 11.8zm1.5-4.6l1.6-4.8h0.1l1.6 4.8zm10.3 4.6h2.1v-4.3h2.2l2.3 4.3h2.4l-2.5-4.7c1.3-0.6 2.1-1.7 2.1-3.3 0-2.3-1.5-3.8-4.2-3.8h-4.4zm2.1-6.1v-3.9h2c1.6 0 2.3 0.7 2.3 2 0 1.2-0.7 1.9-2.3 1.9zm17.9-1.9h2.2c-0.3-2.4-2.3-4-5-4-3 0-5.4 2.3-5.4 6.1 0 3.7 2.3 6 5.5 6 2.9 0 5-1.8 5-4.9v-1.4h-4.8v1.7h2.7c0 1.7-1.1 2.7-2.9 2.7-2 0-3.3-1.5-3.3-4.1 0-2.7 1.4-4.2 3.3-4.2 1.4 0 2.4 0.8 2.7 2.1zm6 8h7.7v-1.8h-5.6v-3.2h5.2v-1.8h-5.2v-3.2h5.6v-1.8h-7.7zm11-10h3.6v10h2.1v-10h3.7v-1.8h-9.4zm15-1.8h-2.2v11.8h2.2zm13.6 0h-2.1v8h-0.1l-5.6-8h-1.9v11.8h2.1v-8h0.1l5.6 8h1.9zm11.8 3.8h2.2c-0.3-2.4-2.3-4-5-4-3 0-5.4 2.3-5.4 6.1 0 3.7 2.3 6.1 5.5 6.1 2.9 0 5-1.9 5-5v-1.4h-4.8v1.7h2.8c-0.1 1.7-1.2 2.7-3 2.7-2 0-3.3-1.4-3.3-4.1 0-2.7 1.4-4.2 3.3-4.2 1.4 0 2.4 0.8 2.7 2.1z"/>
				<path id="Shape 1" class="s3" d="m69.5 361c-9.1 0-16.5-7.4-16.5-16.5 0-9.1 7.4-16.5 16.5-16.5 9.1 0 16.5 7.4 16.5 16.5 0 9.1-7.4 16.5-16.5 16.5z"/>
				<path id="3" class="s0" aria-label="3"  d="m69.3 350.2c2.5 0 4.3-1.5 4.3-3.5 0-1.5-0.9-2.5-2.5-2.7v-0.1c1.2-0.3 2.1-1.3 2.1-2.6 0-1.8-1.5-3.3-3.9-3.3-2.3 0-4 1.4-4.1 3.4h2.1c0-1 0.9-1.6 2-1.6 1.1 0 1.8 0.6 1.8 1.6 0 1.1-0.8 1.7-2 1.7h-1.1v1.7h1.1c1.5 0 2.3 0.7 2.3 1.8 0 1.1-0.9 1.8-2.1 1.8-1.2 0-2.1-0.6-2.2-1.6h-2.1c0 2 1.8 3.4 4.3 3.4z"/>
			</g>
		</g>
	</g>
	<g id="Layer">
		<path id="Layer" class="s0" d="m413.8 442.2l-3.8-24.5c-0.1-0.8 0.9-1.3 1.6-0.8l21.8 15.2c0.8 0.5 0.5 1.6-0.4 1.7l-10.4 1c-0.3 0-0.6 0.1-0.7 0.3l-6.2 7.6c-0.5 0.6-1.7 0.3-1.9-0.5z"/>
		<path id="Layer" class="s6" d="m413.8 442.2l-3.8-24.5c-0.1-0.8 0.9-1.3 1.6-0.8l21.8 15.2c0.8 0.5 0.5 1.6-0.4 1.7l-10.4 1c-0.3 0-0.6 0.1-0.7 0.3l-6.2 7.6c-0.5 0.6-1.7 0.3-1.9-0.5z"/>
	</g>
</svg>